<svg xmlns="http://www.w3.org/2000/svg" xmlns:lucid="lucid" width="379" height="325"><g lucid:page-tab-id="WJLzDwlYxv42"><path d="M761.67 461c0 105.67-85.67 191.33-191.34 191.33S379 566.67 379 461c0-105.67 85.66-191.33 191.33-191.33 105.67 0 191.34 85.66 191.34 191.33z" stroke="#000" stroke-opacity="0" fill="#225578"/><path d="M-1 6.33a6 6 0 0 1 6-6h368a6 6 0 0 1 6 6V321a6 6 0 0 1-6 6H5a6 6 0 0 1-6-6z" stroke="#282c33" fill="#225578"/><path d="M47 51.4a6 6 0 0 1 6-6h80a6 6 0 0 1 6 6v93a6 6 0 0 1-6 6H53a6 6 0 0 1-6-6z" stroke="#fff" stroke-width="10" fill-opacity="0"/><path d="M47 83h92" stroke="#fff" stroke-width="10" fill="none"/><path d="M235.67 97.83a6 6 0 0 1 6-6h80a6 6 0 0 1 6 6v93a6 6 0 0 1-6 6h-80a6 6 0 0 1-6-6z" stroke="#fff" stroke-width="10" fill-opacity="0"/><path d="M235.67 129.43h92" stroke="#fff" stroke-width="10" fill="none"/><path d="M122.33 188.5a6 6 0 0 1 6-6h80a6 6 0 0 1 6 6v93a6 6 0 0 1-6 6h-80a6 6 0 0 1-6-6z" stroke="#fff" stroke-width="10" fill-opacity="0"/><path d="M122.33 220.1h92" stroke="#fff" stroke-width="10" fill="none"/><path d="M114.83 235H99a6 6 0 0 1-6-6v-71.1" stroke="#fff" stroke-width="5" fill="none"/><path d="M117.33 237.5h-2.56v-5h2.56zM95.5 157.96h-5v-2.57h5z" stroke="#fff" stroke-width=".05" fill="#fff"/><path d="M146.5 124.34h81.67" stroke="#fff" stroke-width="5" fill="none"/><path d="M146.56 126.84H144v-5h2.56zM230.67 126.83h-2.57v-5h2.57z" stroke="#fff" stroke-width=".05" fill="#fff"/></g></svg>